<svg width="17" height="18" viewBox="0 0 17 18" fill="none" xmlns="http://www.w3.org/2000/svg">
<path d="M16.09 8.30255L8.95579 15.4368C8.0818 16.3108 6.89641 16.8018 5.6604 16.8018C4.42438 16.8018 3.23899 16.3108 2.365 15.4368C1.491 14.5628 1 13.3774 1 12.1414C1 10.9053 1.491 9.71996 2.365 8.84596L9.4992 1.71176C10.0819 1.12909 10.8721 0.801758 11.6961 0.801758C12.5201 0.801758 13.3104 1.12909 13.8931 1.71176C14.4757 2.29442 14.8031 3.08468 14.8031 3.90869C14.8031 4.7327 14.4757 5.52296 13.8931 6.10562L6.7511 13.2398C6.45977 13.5312 6.06464 13.6948 5.65263 13.6948C5.24063 13.6948 4.8455 13.5312 4.55417 13.2398C4.26284 12.9485 4.09917 12.5534 4.09917 12.1414C4.09917 11.7294 4.26284 11.3342 4.55417 11.0429L11.145 4.45986" stroke="#0080FF" stroke-linecap="round" stroke-linejoin="round"/>
</svg>
